<?xml version="1.0" encoding="UTF-8"?>
<!DOCTYPE svg PUBLIC "-//W3C//DTD SVG 1.1//EN" "http://www.w3.org/Graphics/SVG/1.1/DTD/svg11.dtd">
<!-- Creator: CorelDRAW 2021.5 -->
<svg xmlns="http://www.w3.org/2000/svg" xml:space="preserve" width="5.90551in" height="3.10512in" version="1.1" shape-rendering="geometricPrecision" text-rendering="geometricPrecision" image-rendering="optimizeQuality" fill-rule="evenodd" clip-rule="evenodd"
viewBox="0 0 5905.51 3105.12"
 xmlns:xlink="http://www.w3.org/1999/xlink"
 xmlns:xodm="http://www.corel.com/coreldraw/odm/2003">
 <g id="Layer_x0020_1">
  <metadata id="CorelCorpID_0Corel-Layer"/>
  <g id="_2208631693296">
   <path fill="#DFEDF2" d="M2421.79 2710.09c-19.77,156.28 -416.54,239.26 -481.07,-150.95 -6.31,-38.17 -632.76,-327.75 -280.39,-1052.85 133.79,-275.31 375.62,-216.41 309.07,-514.57 -74.45,-333.54 194.65,-1018.41 536.82,-892.33 612.8,225.79 165.45,371.35 764.43,-6.53 508.25,-320.63 635.98,365.49 1097.97,322.3 0.89,-0.08 797.44,114.7 350.12,939.91 -163.39,301.44 -451.08,98.52 -452.28,640.5 -0.56,255.39 -230.96,799.56 -517.11,761.98 -512.71,-67.34 -313.99,103.31 -649.54,326.31 -223.22,148.34 -307.56,-328.57 -513.87,-356.35 -18.47,-2.49 -164.02,-18.44 -164.16,-17.41z"/>
   <rect fill="#EFF0F1" transform="matrix(1.6036 -0.150952 0.150952 1.6036 2894.79 797.47)" width="146.31" height="64.38" rx="32.19" ry="32.19"/>
   <path fill="#333333" fill-rule="nonzero" d="M2944.19 768.66l131.41 -12.37c20.81,-1.96 40.49,4.74 55.42,17.1 14.97,12.4 25.25,30.53 27.21,51.37 1.96,20.83 -4.74,40.51 -17.09,55.45 -12.41,14.98 -30.54,25.25 -51.39,27.21l-131.41 12.37c-20.81,1.96 -40.49,-4.74 -55.42,-17.1 -14.97,-12.4 -25.25,-30.53 -27.22,-51.37 -1.96,-20.83 4.74,-40.51 17.1,-55.45 12.4,-14.98 30.54,-25.26 51.39,-27.21zm135.84 35.53l-131.41 12.36c-7.52,0.71 -14.13,4.48 -18.67,9.96 -4.57,5.53 -7.07,12.77 -6.36,20.33 0.71,7.54 4.48,14.15 9.97,18.69 5.52,4.57 12.76,7.06 20.34,6.35l131.41 -12.37c7.52,-0.71 14.13,-4.47 18.67,-9.96 4.57,-5.52 7.06,-12.76 6.35,-20.33 -0.71,-7.54 -4.48,-14.15 -9.97,-18.69 -5.52,-4.57 -12.76,-7.06 -20.34,-6.35z"/>
   <rect fill="#EFF0F1" transform="matrix(1.6036 -0.150952 0.150952 1.6036 2912.6 1067.14)" width="146.31" height="64.38" rx="32.19" ry="32.19"/>
   <path fill="#333333" fill-rule="nonzero" d="M2962 1038.33l131.41 -12.36c20.81,-1.96 40.49,4.74 55.42,17.09 14.97,12.4 25.25,30.53 27.22,51.37 1.96,20.83 -4.74,40.52 -17.1,55.45 -12.4,14.98 -30.54,25.26 -51.39,27.22l-131.41 12.36c-20.81,1.96 -40.49,-4.74 -55.42,-17.09 -14.97,-12.4 -25.25,-30.53 -27.21,-51.37 -1.96,-20.83 4.74,-40.52 17.09,-55.45 12.41,-14.98 30.54,-25.26 51.39,-27.22zm135.84 35.53l-131.41 12.37c-7.52,0.71 -14.13,4.48 -18.67,9.96 -4.57,5.52 -7.06,12.77 -6.35,20.33 0.71,7.55 4.48,14.15 9.96,18.69 5.53,4.57 12.76,7.06 20.34,6.35l131.41 -12.36c7.52,-0.71 14.12,-4.47 18.67,-9.96 4.57,-5.52 7.06,-12.76 6.36,-20.33 -0.71,-7.54 -4.48,-14.15 -9.97,-18.69 -5.53,-4.57 -12.76,-7.06 -20.34,-6.35z"/>
   <path fill="#939394" d="M1971.99 1005.2l-0 -0.01c-6.15,-203.03 137.94,-309.2 317.82,-314.65 101.09,-3.06 200.44,-66.38 301.33,-73.58 598.52,-42.74 461.48,815.19 27.37,738.15l-310.25 -55.06c-177.98,-31.6 -330.12,-91.82 -336.26,-294.85z"/>
   <path fill="#333333" fill-rule="nonzero" d="M1996.04 1004.5c2.81,92.82 38.59,152.72 93.77,192.83 57.54,41.82 136.85,63.74 222.74,78.99l310.25 55.06c131.33,23.32 233.4,-47.3 291.48,-150.97 31.4,-56.06 50.14,-121.66 54.01,-187.57 3.84,-65.56 -7.01,-131.18 -34.74,-187.69 -50.75,-103.43 -159.59,-177.09 -340.66,-164.16 -45.57,3.26 -92.36,19.26 -139.14,35.25 -53.55,18.31 -107.13,36.64 -163.25,38.34 -88.19,2.67 -166.81,30.81 -220.43,83.91 -48.29,47.81 -76.73,116.57 -74.03,206zm-48.11 1.38c-3.14,-103.95 30.72,-184.67 88.15,-241.53 62.63,-62.02 152.82,-94.83 253.03,-97.87 48.59,-1.47 98.82,-18.65 149.01,-35.81 49.79,-17.03 99.59,-34.06 151.26,-37.75 204.41,-14.59 328.51,71.04 387.4,191.08 31.55,64.3 43.95,138.28 39.65,211.67 -4.29,73.04 -25.11,145.83 -60.02,208.15 -67.55,120.57 -187.22,202.52 -342.19,175.01l-310.25 -55.06c-92.1,-16.35 -177.86,-40.36 -242.41,-87.3 -66.92,-48.64 -110.29,-120.4 -113.62,-230.6z"/>
   <path fill="#EFF0F1" d="M2246.5 696.19c87.67,-2.66 146.73,-32.56 233.74,-43.63 429.01,-54.6 437.71,704.91 24.62,669.41l-240.05 -20.64c-409.03,-35.16 -371.21,-594.45 -18.32,-605.14z"/>
   <path fill="#333333" fill-rule="nonzero" d="M2245.81 672.13c47.15,-1.43 86.72,-11.53 127.43,-21.92 32.33,-8.26 65.37,-16.69 103.94,-21.59 153.08,-19.48 256.91,56.58 311.38,166.09 27.85,55.99 42.47,120.87 43.85,185.89 1.37,64.96 -10.49,130.31 -35.62,187.34 -48.87,110.93 -146.83,190.62 -294.02,177.97l-240.05 -20.63c-152.24,-13.09 -247.02,-94.5 -290.05,-195.7 -19.22,-45.19 -27.96,-94.42 -26.75,-143.25 1.21,-48.69 12.38,-97.07 32.98,-140.73 45.43,-96.3 136.3,-169.52 266.91,-173.47zm139.36 24.8c-43.13,11.01 -85.05,21.71 -137.98,23.31 -110.05,3.32 -186.58,64.98 -224.83,146.06 -17.67,37.45 -27.26,79.11 -28.3,121.18 -1.04,41.93 6.5,84.27 23.05,123.2 36.59,86.06 118.11,155.37 249.8,166.69l240.05 20.63c122.81,10.56 204.76,-56.4 245.8,-149.57 22.26,-50.54 32.78,-108.77 31.55,-166.87 -1.23,-58.03 -14.2,-115.78 -38.9,-165.44 -45.81,-92.09 -133.19,-156.04 -262.11,-139.63 -36.09,4.59 -67.44,12.59 -98.13,20.43z"/>
   <path fill="white" d="M2004.39 925.24c67.94,26.1 157.15,56.18 55.33,126.73 -20.65,14.31 -168.2,84.15 -184.96,83.75 -29.51,-0.69 -28.04,-18.45 -31.61,-20.72 0.68,-64.85 7.86,-167.99 94.58,-165.73 31.17,0.81 51.4,-29.9 66.66,-24.04z"/>
   <path fill="#333333" fill-rule="nonzero" d="M732.5 2225.47c59.72,-24.39 95.13,-59.72 131.24,-110.27l24.67 39.91c-29.36,42.89 -82.27,89.94 -119.32,106.48l-36.58 -36.12z"/>
   <path fill="#333333" fill-rule="nonzero" d="M860.89 2336.15c57.1,-39.1 75.83,-55.52 110.28,-104.18l79.7 -28.91c-78.45,111.19 -106.37,144.97 -176.81,182.44l-13.17 -49.35z"/>
   <path fill="#333333" fill-rule="nonzero" d="M1915.94 1137.56c17.91,-7.43 36.64,-14.31 56.28,-20.6 8.95,-2.86 17.45,-5.79 25.56,-8.76l0.39 -0.12 0.29 -0.12c16.62,-6.11 31.52,-12.41 44.8,-18.85l0.46 -0.19 -0.02 -0.01c184.09,-89.54 54.75,-205.19 -96.13,-180.28l0 -0.01 -0.07 0.02c-11.28,1.86 -22.66,4.5 -34.06,8.01 -13.76,4.23 -27.18,8.67 -40.3,13.3 -212.13,68.91 -325.13,181.88 -411.88,324.06 -95.99,157.33 -135.26,339.57 -171.98,510.11l-0.15 0.72c-16.01,74.26 -31.48,146.05 -51.98,211.48 -13.69,43.66 -32.09,83.76 -53.97,118.12 -21.43,33.66 -46.06,61.7 -72.65,82.04 -10.11,7.73 -20.53,14.3 -31.12,19.54 -10.01,4.95 -19.98,8.61 -29.78,10.82l-1.4 0.31c10.65,-16.38 20.75,-33.35 30.26,-50.84 17.26,-31.73 32.51,-65.15 45.65,-99.76 35.05,-92.33 42.43,-178.96 30.97,-255.68 -13.4,-89.67 -52.48,-165.94 -103.25,-222.21 -20.67,-22.9 -43.56,-42.73 -67.77,-59.04 -24.6,-16.57 -50.69,-29.55 -77.3,-38.49 -30.17,-10.14 -60.99,-15.13 -91.33,-14.48 -29.84,0.63 -59.17,6.67 -86.94,18.56 -44.67,19.11 -83.8,52.1 -112.48,100.57 -25.3,42.76 -42.37,97.63 -47.65,165.66 -3.18,41.08 -2.04,83.61 2.99,126.25 5.14,43.52 14.34,87.24 27.12,129.74 12.76,42.43 29.27,84.08 49.04,123.49 18.68,37.24 40.41,72.63 64.76,104.97 -20.72,8.61 -42.67,14.81 -65.78,18.24 -31.45,4.67 -65.17,4.23 -100.94,-2.24 -33.85,-6.11 -67.87,-16.04 -100.73,-28.74 -35.13,-13.57 -68.54,-30.11 -98.77,-48.38 -29.91,-18.08 -56.46,-37.52 -78.13,-57.06 -20.62,-18.61 -36.6,-37.15 -46.48,-54.41l-2.36 -4.13 -24.51 50.43c11.13,14.56 24.98,29.31 41.08,43.85 23.89,21.55 52.97,42.86 85.54,62.56 33.02,19.96 68.96,37.81 106.15,52.18 35.43,13.69 72.41,24.45 109.62,31.17 41.09,7.43 80.03,7.91 116.56,2.48 38.72,-5.76 74.72,-18.17 107.73,-36.02l25.89 -14 -26.36 -31.87 -7.57 -9.69c-23.38,-30.57 -44.42,-64.69 -62.64,-101 -18.47,-36.83 -33.94,-75.85 -45.92,-115.68 -11.99,-39.85 -20.61,-80.83 -25.43,-121.57 -4.67,-39.54 -5.73,-78.87 -2.8,-116.71 4.67,-60.27 19.43,-108.25 41.21,-145.07 23.13,-39.11 54.37,-65.58 89.82,-80.75 22.04,-9.43 45.29,-14.22 68.92,-14.72 24.74,-0.52 50.02,3.6 74.93,11.97 22.43,7.54 44.67,18.64 65.93,32.96 20.94,14.11 40.84,31.37 58.9,51.37 44.81,49.66 79.34,117.2 91.24,196.85 10.33,69.25 3.61,147.62 -28.2,231.42 -12.32,32.44 -26.71,63.95 -43.09,94.08 -15.82,29.09 -33.64,56.94 -53.34,83.15l-23.24 30.9 37.93 7.3c10.54,2.03 21.06,2.93 31.49,2.78 10.42,-0.15 20.87,-1.44 31.24,-3.78 13.83,-3.13 27.43,-8.05 40.63,-14.57 13.17,-6.52 26.23,-14.76 39,-24.52 31.28,-23.93 59.76,-56.15 84.07,-94.32 24.12,-37.89 44.33,-81.81 59.24,-129.42 20.92,-66.73 36.72,-140.09 53.07,-215.96l0.15 -0.72c35.91,-166.71 74.3,-344.83 166.03,-495.18 65.02,-106.59 157.57,-200.15 296.38,-267.29l-0.74 1.52c37.06,-18 77.41,-34.12 121.45,-48.08 110.11,-34.93 247.33,30.35 66.4,96.37 -198.43,55.76 -317.28,164.54 -394.4,295.81 -79.54,135.38 -113.56,293.26 -145.35,441l-0.12 0.45c-17.16,79.61 -33.73,156.57 -55.53,226.13 -18.43,58.81 -44.14,113.5 -75.37,161.08 -30.82,46.97 -67.04,87.15 -106.92,117.65 -19.26,14.73 -39.47,27.29 -60.45,37.39 -20.31,9.78 -41.34,17.24 -62.87,22.1 -23,5.19 -46.52,7.47 -70.33,6.51 -22.86,-0.92 -46.03,-4.89 -69.3,-12.19 -9.73,-3.06 -19.21,-6.56 -28.38,-10.53 -9.25,-4.01 -18.58,-8.62 -27.96,-13.83l-13.17 -7.32 -23.24 16.17c-48.15,32.3 -101.48,55.61 -159.42,67.4 -54.57,11.11 -113.41,12.04 -176.11,0.7 -43.29,-7.83 -86.66,-20.45 -128.44,-36.56 -44.59,-17.2 -86.98,-38.15 -125.31,-61.33 -41.24,-24.93 -78.62,-52.98 -109.94,-82.33 -3.98,-3.73 -7.87,-7.48 -11.65,-11.24l-22.15 45.59 0.94 0.89c33.6,31.47 73.7,61.57 117.94,88.31 41.15,24.88 86.06,47.14 132.7,65.13 44.37,17.11 90.7,30.56 137.33,38.99 68.92,12.46 133.85,11.39 194.26,-0.9 64.12,-13.05 123.04,-38.73 176.2,-74.29 6.25,3.15 12.53,6.09 18.85,8.82 11.23,4.87 22.23,8.96 32.96,12.33 27.31,8.56 54.7,13.23 81.89,14.33 27.86,1.12 55.59,-1.58 82.89,-7.75 25.24,-5.69 49.71,-14.37 73.23,-25.69 23.93,-11.52 46.95,-25.81 68.82,-42.54 44.2,-33.8 84.15,-78.02 117.93,-129.51 33.76,-51.46 61.42,-110.12 81.06,-172.8 22.19,-70.81 39.09,-149.27 56.56,-230.44l0.12 -0.45c31.01,-143.96 64.14,-297.81 139.95,-426.83 63.7,-108.41 134.53,-185.6 281.81,-244.71l0.98 0.48zm-1045.91 960.7c8.61,-12.83 16.73,-26.22 24.32,-40.06 13.31,-24.26 25.02,-49.84 35.08,-76.3 20.26,-53.38 25.21,-102.44 19.67,-145.13 -6.31,-48.59 -26.22,-88.99 -52.42,-118.02l-0.09 -0.04c-9.16,-10.15 -18.67,-18.63 -28.17,-25.26 -9.52,-6.64 -19.16,-11.61 -28.52,-14.77 -6.31,-2.12 -12.38,-3.3 -17.92,-3.41l-0.08 -0.04c-4.24,-0.09 -8.02,0.5 -11.09,1.81 -7.14,3.05 -14.05,11.05 -20.08,24.83 -6.8,15.57 -11.75,37.36 -13.99,66.22 -2.16,27.8 -1.28,57.07 2.35,86.83 3.72,30.65 10.37,61.81 19.58,92.44 9.36,31.14 21.2,61.28 35.13,89.35 10.89,21.95 23.02,42.63 36.23,61.55zm66.62 -16.98c-14.11,25.71 -29.82,49.94 -47.04,72.25l-18.72 24.26c-9.6,-11.96 -19.27,-23.86 -28.68,-35.97 -19.3,-25.31 -36.63,-53.57 -51.57,-83.69 -15.22,-30.68 -28.09,-63.37 -38.17,-96.91 -9.99,-33.2 -17.21,-67.12 -21.28,-100.61 -3.98,-32.8 -4.95,-65.28 -2.54,-96.37 2.67,-34.28 9.02,-61.28 17.96,-81.7 11.29,-25.82 27.05,-41.99 45.2,-49.76 9.51,-4.08 20.04,-5.92 31.14,-5.69 10.28,0.18 21.22,2.25 32.38,6 13.6,4.58 27.28,11.58 40.48,20.8 12.87,8.98 25.24,19.9 36.62,32.51 32.24,35.81 56.71,85.19 64.37,144.18 6.5,50.06 0.88,107.1 -22.46,168.56 -10.9,28.72 -23.5,56.26 -37.71,82.15z"/>
   <path fill="#333333" fill-rule="nonzero" d="M4145.75 1002.47c5.53,-0.33 11.8,-1.46 18.72,-3.21 2.83,-0.72 5.48,-1.56 8.11,-2.48l18.11 -6.99 0.12 0.15c11.17,-3.94 25.54,-7.78 42.72,-6.8 51.94,2.93 111.66,6.3 174.31,13 63.05,6.73 129.3,16.82 194.09,33.17 91.89,23.2 156.36,49.9 210.96,85.39 54.45,35.39 98.72,79.28 150.53,137.04l0.08 0.1c10.6,12.26 18.88,22.45 25.62,32.19 6.84,9.91 12.09,19.34 16.54,29.94 2.48,6.65 4.82,13.44 7.15,20.13 5.9,19.55 11,44.43 18.57,81.38l5.55 26.93 0.78 0.04 4.2 27.74c3.83,24.44 6.49,50.22 7.87,77.39 1.37,27.04 1.48,55.38 0.2,85.04 -3.72,85.98 -13.98,163.83 -29.42,233.92 -16.65,75.59 -39.31,142.24 -66.27,200.41 -28.89,62.3 -62.58,114.71 -98.96,157.88 -39.98,47.43 -83.3,83.78 -127.13,109.9 -18.18,10.83 -36.69,20.08 -55.3,27.79 -19.1,7.93 -38.23,14.14 -57.18,18.72 -18.93,4.57 -37.77,7.54 -56.27,8.94 -18.87,1.43 -37.37,1.24 -55.25,-0.52 -18.51,-1.82 -36.27,-5.22 -53.02,-10.12 -16.83,-4.94 -32.79,-11.42 -47.66,-19.36 -14.85,-7.93 -28.65,-17.4 -41.15,-28.28 -12.29,-10.7 -23.38,-22.81 -33.06,-36.22 -16.14,-22.39 -28.13,-48.75 -34.88,-78.62 -6.34,-28.09 -8.06,-59.37 -4.22,-93.46 3.7,-32.94 12.6,-68.46 27.52,-106.2 14.06,-35.59 33.41,-73.16 58.69,-112.41 23.55,-36.56 51.93,-80.05 85.25,-128.53 32.9,-47.88 69.83,-99.42 110.08,-151.43 36.23,-46.83 75.44,-94.48 117.24,-140.85 41.82,-46.41 86.23,-91.54 132.79,-133.24l11.53 -10.32 6.56 12.54c8.35,15.98 14.94,29.37 20.14,41.26 5.24,11.98 9.04,22.4 11.77,32.33l1.02 3.7 -3.05 2.9c-43.08,41.12 -84.33,85.38 -123.24,130.66 -39.06,45.44 -75.68,91.74 -109.4,136.82 -34.07,45.54 -64.93,89.39 -92.36,129.72 -26.84,39.48 -51.32,77.07 -72.29,109.62 -20.83,32.34 -37.11,62.89 -49.29,91.48 -12.93,30.32 -21.31,58.5 -25.73,84.3 -4.96,28.91 -4.93,55.12 -0.71,78.36 4.41,24.27 13.38,45.33 26.02,62.86 5.35,7.41 11.4,14.13 18.03,20.07 6.59,5.91 13.87,11.13 21.72,15.59 8.26,4.7 17.11,8.52 26.38,11.4 9.26,2.87 18.99,4.82 29.03,5.81 11.36,1.12 23.22,1.09 35.42,-0.1 12.1,-1.19 24.67,-3.54 37.52,-7.11 11.53,-3.2 23.43,-7.43 35.53,-12.7 11.83,-5.16 23.81,-11.3 35.76,-18.43 39,-23.24 77.44,-56.13 112.76,-99.56 32.53,-40 62.41,-88.91 87.69,-147.42 22.58,-52.25 41.6,-112.41 55.7,-180.95 13.12,-63.84 21.94,-134.96 25.35,-213.75 0.76,-17.43 0.94,-34.43 0.57,-50.96 -0.37,-16.68 -1.31,-32.82 -2.78,-48.37 -1.47,-15.49 -3.45,-30.32 -5.9,-44.49 -2.51,-14.49 -5.56,-28.64 -9.11,-42.43l-6.76 -23.97 0.14 -1.74c-5.52,-21.37 -11.01,-42.1 -22.14,-65.02 -11.28,-23.19 -28.45,-48.9 -57.49,-80.26l0.1 -0.06 -0.38 -0.26c-37.17,-44.22 -81.98,-78.73 -131.09,-105.77 -49.19,-27.08 -102.85,-46.74 -157.57,-61.19 -57.61,-15.22 -116.17,-24.52 -171.63,-30.65 -56.21,-6.22 -108.62,-9.18 -153.98,-11.74 -60.74,-3.43 -112.77,-6.36 -151.11,-15.54 -6.02,-1.45 -11.8,-3.1 -17.34,-5.02 -5.58,-1.94 -10.74,-4.09 -15.41,-6.47l-17.81 -9.09 101.46 -25.77 7.17 0.11c3.81,1.09 8.24,1.41 13.19,1.13zm1044.43 223.98c-43.26,13.33 -85.51,32.65 -126.44,56.5l-11 6.42 -5.36 -9.65c-5.72,-10.29 -12.05,-20.61 -18.87,-30.54 -6.54,-9.5 -13.5,-18.69 -20.78,-27.25l-5.24 -6.15 7.65 -4.5c53.67,-31.56 108.83,-56.82 164.97,-73.59 56.59,-16.9 114.15,-25.21 172.16,-22.72 62.91,2.7 127.12,18.11 192.19,49 64.52,30.63 129.88,76.52 195.66,140.39l5.31 5.39 31.11 -48.3c-69.61,-65.08 -139.63,-112.07 -209.42,-143.6 -70.76,-31.96 -141.35,-48.04 -211.09,-51.04 -64.7,-2.78 -128.21,5.74 -190.08,23.3 -62.19,17.65 -122.81,44.47 -181.48,78.18l-8.72 5.01 -6.38 -6.69c-45.91,-48.13 -99.68,-85.85 -157.8,-115.5 -58.25,-29.74 -120.91,-51.43 -184.39,-67.46 -68.32,-17.25 -137.3,-27.84 -202.59,-34.89 -65.68,-7.08 -127.52,-10.58 -181.29,-13.61 -13.58,-0.78 -25.58,-0.14 -36.18,1.3 -10.46,1.42 -19.74,3.69 -27.91,6.19l-10.5 3.22 -2.07 -4.66 -221.98 56.37 10.16 22.83c8.84,19.87 22.24,35.07 39.72,46.77 17.66,11.8 39.72,20.22 65.62,26.42 22.23,5.32 47.19,8.77 74.63,11.34 28.3,2.65 58.52,4.36 91.04,6.2 43.37,2.44 93.47,5.28 146.27,11.05 53.11,5.81 108.81,14.57 162.85,28.84 48.62,12.84 96.3,30.26 140,54.21 43.84,24.02 83.7,54.63 116.52,93.77l4.23 5.04 -5.13 4.49c-50.33,44.06 -98.23,92.07 -143.22,141.57 -45.02,49.54 -87.14,100.57 -125.89,150.66 -41.46,53.59 -78.84,105.66 -111.77,153.56 -32.51,47.28 -61.52,91.76 -85.87,129.55 -27.11,42.07 -47.8,82.44 -62.8,120.79 -15.89,40.66 -25.43,79.1 -29.45,114.93 -4.39,39.06 -2.18,75.23 5.53,108 8.08,34.37 22.22,64.96 41.15,91.21 12.07,16.74 26,31.87 41.51,45.27 15.7,13.56 33.12,25.44 51.96,35.52 19,10.15 39.5,18.46 61.19,24.81 21.64,6.34 44.43,10.72 68.05,13.04 22.5,2.21 45.66,2.49 69.13,0.77 23.11,-1.7 46.55,-5.35 70.02,-11.03 22.54,-5.44 45.18,-12.76 67.61,-21.98 21.89,-9.01 43.69,-19.87 65.1,-32.63 48.07,-28.64 95.46,-68.06 139,-119.09 40,-46.87 76.74,-103.5 107.8,-170.48 27.95,-60.27 51.42,-129.15 68.65,-207.08 16.06,-72.6 26.71,-153.05 30.54,-241.7 1.34,-31.13 1.25,-60.8 -0.19,-89.05 -1.43,-28.14 -4.22,-55.02 -8.23,-80.65 -3.43,-21.86 -7.74,-42.74 -12.87,-62.64 -5.15,-19.99 -11.13,-39.1 -17.86,-57.34l-1.83 -4.96 5.17 -3.32c38.9,-24.87 78.89,-45.29 119.51,-59.55 41.09,-14.41 82.81,-22.53 124.69,-22.58 45.17,-0.07 91.36,9.33 138.17,30.38 46.17,20.76 93,52.96 140.1,98.7 3.33,3.25 13.87,14.68 26.4,28.39l28.05 30.87 32.2 -49.98 -22.93 -24.97c-6.06,-6.52 -10.82,-11.53 -13.22,-13.86 -54.5,-52.92 -109.68,-90.03 -164.92,-113.82 -54.7,-23.57 -109.55,-34.07 -163.91,-34 -44.96,0.07 -89.06,7.43 -131.97,20.65zm-309.84 353.85c0.35,15.41 0.18,31.47 -0.55,48.15 -3.31,76.34 -11.78,145.08 -24.36,206.61 -13.57,66.37 -31.89,124.44 -53.61,174.73 -23.07,53.39 -49.85,97.81 -78.65,133.91 -31.76,39.8 -66.06,69.56 -100.65,90.17 -9.24,5.51 -18.3,10.2 -27.08,14.09 -9.16,4.06 -18.09,7.27 -26.65,9.65 -7.72,2.14 -15.1,3.61 -22.06,4.39 -7.3,0.81 -14.2,0.91 -20.57,0.28 -4.48,-0.44 -8.89,-1.36 -13.13,-2.73 -4.19,-1.35 -8.23,-3.12 -12.05,-5.29 -4.23,-2.41 -8.29,-5.39 -12.12,-8.89 -3.65,-3.33 -7.01,-7.12 -10.04,-11.31 -9.68,-13.43 -16.41,-30.01 -19.48,-49.53 -2.86,-18.16 -2.57,-39.01 1.43,-62.36 4,-23.31 11.71,-48.94 23.7,-76.72 11.31,-26.2 26.37,-54.3 45.6,-84.16 20.22,-31.39 44.21,-68.22 72.25,-109.5 27.42,-40.4 57.83,-83.65 90.53,-127.37 24.63,-32.93 50.84,-66.51 78.42,-99.88 27.58,-33.37 56.53,-66.5 86.66,-98.54l18.36 -23.09 0.97 27.12 0.41 4.13c1.41,14.84 2.31,30.22 2.66,46.11z"/>
   <path fill="#EFF0F1" d="M4142.33 1125.64c-40.22,107.98 -112.63,180.67 -227.68,184.15 -87.22,2.65 -32,7.5 -119.06,13.71 -516.56,36.87 -399.57,-695.86 -23.63,-637.07l113.21 17.7c98.08,15.34 172.65,58.62 226.07,134.09 60.01,84.8 65.07,196.21 31.09,287.41z"/>
   <path fill="#333333" fill-rule="nonzero" d="M4164.88 1134.08c-22.41,60.17 -54.53,110.37 -98.01,145.54 -40.71,32.94 -90.82,52.38 -151.52,54.22 -42.13,1.28 -47.67,2.9 -54.5,4.9 -8.7,2.55 -18.99,5.57 -63.5,8.74 -178.19,12.76 -286.51,-61.3 -337.95,-165.33 -27.03,-54.66 -37.95,-117.39 -34.76,-179.87 3.17,-62.06 20.25,-124.17 49.27,-177.99 58.21,-107.98 163.93,-183.21 301.85,-161.63l113.2 17.71c52.15,8.15 98.12,23.78 138.22,47.43 40.55,23.91 75.03,55.9 103.75,96.48 31.37,44.33 48.89,95.26 54.5,147.12 5.99,55.38 -1.65,111.96 -20.55,162.67zm-128.32 108.16c36.38,-29.43 63.7,-72.64 83.22,-125.04 16.33,-43.81 22.93,-92.69 17.75,-140.52 -4.76,-44.04 -19.56,-87.17 -45.98,-124.5 -24.69,-34.88 -54.2,-62.31 -88.81,-82.72 -35.06,-20.67 -75.42,-34.37 -121.35,-41.55l-113.2 -17.71c-114.37,-17.89 -202.7,45.73 -251.82,136.85 -25.67,47.61 -40.79,102.62 -43.6,157.67 -2.78,54.64 6.57,109.1 29.78,156.04 43.3,87.56 136.39,149.77 291.31,138.71l0.08 0.04c38.73,-2.76 46.62,-5.07 53.3,-7.03 9.92,-2.91 17.92,-5.25 66.73,-6.73 49.44,-1.5 89.96,-17.1 122.59,-43.5z"/>
   <path fill="#8C8F8E" d="M3419.48 990.54c-9.07,-221.76 183.9,-362.78 261.13,-359.33 23.26,1.03 85.59,4.02 119.27,29.4 130.29,98.2 161.75,722.33 -101.42,710.63 -77.24,-3.43 -269.91,-158.93 -278.98,-380.7z"/>
   <path fill="#333333" fill-rule="nonzero" d="M3395.39 991.54c-0.44,-10.83 -0.4,-21.96 0.11,-33.32 4.71,-105.88 52.2,-192.34 108.69,-252.7 57.55,-61.5 126.13,-96.63 169.75,-98.41 2.17,-0.1 4.8,-0.07 7.76,0.06 12.34,0.55 35.07,1.61 58.94,5.88 25.76,4.59 53.41,12.93 73.76,28.27 70.12,52.85 114.32,238.36 106.69,410.19 -2.33,52.31 -9.27,103.51 -21.52,149.41 -12.59,47.19 -30.84,89.25 -55.53,122.01 -35.56,47.19 -83.77,75.13 -146.65,72.33 -50.47,-2.24 -142.41,-59 -210.78,-152.3 -48.97,-66.82 -87.18,-152.85 -91.21,-251.43zm48.17 -31.16c-0.4,9.09 -0.4,18.82 0.02,29.18 3.59,87.83 37.89,164.84 81.87,224.85 59.82,81.64 135.03,131.06 174.09,132.8 44.87,2 79.76,-18.59 105.91,-53.3 20.81,-27.61 36.47,-64.07 47.54,-105.55 11.41,-42.74 17.86,-90.37 20.03,-139.01 7.02,-158.07 -29.23,-325.42 -87.65,-369.45 -13.31,-10.04 -33.71,-15.89 -53.31,-19.39 -21.51,-3.84 -41.61,-4.79 -52.52,-5.27l-3.61 0.06c-33,1.34 -87.74,30.98 -136.5,83.08 -49.85,53.26 -91.74,129.29 -95.86,222z"/>
   <path fill="#C5C9CC" d="M3397.89 1011.63c-0.62,-192.59 145.97,-359.56 209.3,-358.96 63.33,0.6 157.04,141.78 157.66,334.37 0.62,192.59 -92.07,363.68 -155.41,363.07 -63.34,-0.6 -210.94,-145.89 -211.56,-338.48z"/>
   <path fill="#333333" fill-rule="nonzero" d="M3373.79 1011.57l0.02 -5.02c0.95,-100.35 39.26,-193.54 85.61,-261.59 48.45,-71.15 108.48,-116.23 147.27,-116.35 0.23,-0.08 0.57,-0.15 0.8,-0.04 43.32,0.41 95.28,47.44 131.83,124.97 28.67,60.79 49.31,141.61 49.6,233.44 0.17,0.49 0.01,6.84 0.03,7.97 -0.93,98.07 -25.04,190.5 -57.04,258.5 -34.66,73.61 -81.17,120.59 -121.93,120.72 -0.23,0.08 -0.54,0.04 -0.79,0.04 -43,-0.41 -115.96,-52.57 -168.4,-136.47 -37.98,-60.76 -66.65,-138.78 -66.93,-226.05l-0.04 -0.13zm48.22 -4.46l-0.02 4.59c0.23,77.23 25.74,146.48 59.51,200.51 43.78,70.03 98.69,113.51 128.22,113.8l0.24 0c21.7,-0.17 51.69,-36.37 78.39,-93.08 29.39,-62.41 51.51,-147.63 52.37,-238.54l0.02 -7.42c-0.25,-84.01 -19,-157.66 -45.02,-212.85 -28.48,-60.41 -63.24,-97.02 -88.72,-97.35l-0.46 0.04 0 -0.09c-24.3,0.33 -67.65,37.23 -107.24,95.39 -41.85,61.45 -76.44,145.26 -77.29,234.99z"/>
   <rect fill="#333333" transform="matrix(0.0308358 -1.61039 1.61039 0.0308358 3512.13 930.771)" width="46.29" height="100.48" rx="23.15" ry="23.15"/>
   <rect fill="#333333" transform="matrix(1.44382 -0.713936 0.713936 1.44382 2823.95 323.377)" width="46.29" height="100.48" rx="23.15" ry="23.15"/>
   <rect fill="#333333" transform="matrix(-1.44382 0.713936 -0.713936 -1.44382 3500.19 1775.96)" width="46.29" height="100.48" rx="23.15" ry="23.15"/>
   <rect fill="#333333" transform="matrix(-1.17472 -1.10197 -1.10197 1.17472 3569.67 432.513)" width="46.29" height="100.48" rx="23.15" ry="23.15"/>
   <rect fill="#333333" transform="matrix(1.17472 1.10197 1.10197 -1.17472 2754.47 1666.82)" width="46.29" height="100.48" rx="23.15" ry="23.15"/>
   <path fill="#333333" d="M3186.06 62.42l0 0c20.5,0.4 36.06,17.5 36.54,37.99l3.94 166.31c0.48,20.48 -18.62,29.84 -37.99,36.54l-0.01 0c-19.37,6.7 -36.05,-17.49 -36.54,-37.99l-3.94 -166.31c-0.49,-20.5 17.49,-36.94 37.99,-36.54z"/>
   <path fill="#333333" d="M3138.08 2036.92l0 0c-20.5,-0.4 -36.06,-17.5 -36.54,-38l-3.94 -166.31c-0.48,-20.48 18.62,-29.84 37.99,-36.54l0.01 -0c19.37,-6.7 36.06,17.49 36.54,37.99l3.94 166.31c0.49,20.5 -17.49,36.94 -37.99,36.54z"/>
   <rect fill="#333333" transform="matrix(0.0308358 -1.61039 1.61039 0.0308358 3501.35 1127.71)" width="46.29" height="100.48" rx="23.15" ry="23.15"/>
  </g>
 </g>
</svg>
