<?xml version="1.0" encoding="UTF-8"?>
<!DOCTYPE svg PUBLIC "-//W3C//DTD SVG 1.1//EN" "http://www.w3.org/Graphics/SVG/1.1/DTD/svg11.dtd">
<!-- Creator: CorelDRAW 2021.5 -->
<svg xmlns="http://www.w3.org/2000/svg" xml:space="preserve" width="1.888in" height="0.927in" version="1.1" style="shape-rendering:geometricPrecision; text-rendering:geometricPrecision; image-rendering:optimizeQuality; fill-rule:evenodd; clip-rule:evenodd"
viewBox="0 0 1888 927"
 xmlns:xlink="http://www.w3.org/1999/xlink"
 xmlns:xodm="http://www.corel.com/coreldraw/odm/2003">
 <defs>
  <style type="text/css">
   <![CDATA[
    .fil6 {fill:#FEFEFE}
    .fil2 {fill:#0278FF}
    .fil5 {fill:#0278FF}
    .fil7 {fill:#B6C8E8}
    .fil0 {fill:#DFEDF2}
    .fil9 {fill:#EFF0F1}
    .fil1 {fill:#2B2A29;fill-rule:nonzero}
    .fil4 {fill:#0278FF;fill-rule:nonzero}
    .fil8 {fill:#B6C8E8;fill-rule:nonzero}
    .fil3 {fill:#EFF0F1;fill-rule:nonzero}
   ]]>
  </style>
 </defs>
 <g id="Layer_x0020_1">
  <metadata id="CorelCorpID_0Corel-Layer"/>
  <g id="_1860766174080">
   <path className="fil0" d="M322.11 799.2c-5.83,46.1 -122.88,70.58 -141.92,-44.53 -1.86,-11.26 -186.67,-96.69 -82.72,-310.59 39.47,-81.22 110.81,-63.84 91.18,-151.8 -21.96,-98.39 57.42,-300.43 158.36,-263.24 180.78,66.61 48.81,109.55 225.51,-1.93 149.93,-94.59 187.61,107.82 323.9,95.08 0.26,-0.02 235.25,33.83 103.29,277.28 -48.2,88.93 -133.07,29.06 -133.43,188.95 -0.17,75.34 -68.13,235.87 -152.55,224.79 -151.25,-19.87 -92.63,30.48 -191.62,96.26 -65.85,43.76 -90.73,-96.93 -151.59,-105.13 -5.45,-0.74 -48.39,-5.44 -48.43,-5.14l0 0z"/>
   <path className="fil1" d="M1613.3 621.92c2.09,4.8 3.69,9.79 4.74,14.87 1.07,5.13 1.62,10.34 1.62,15.52 0,20.96 -8.51,39.96 -22.27,53.72 -13.79,13.78 -32.79,22.3 -53.75,22.3 -20.98,0 -40,-8.52 -53.75,-22.27 -13.75,-13.78 -22.27,-32.78 -22.27,-53.75 0,-20.98 8.52,-40 22.27,-53.75 13.75,-13.75 32.76,-22.27 53.75,-22.27 4.39,0 8.79,0.39 13.14,1.15 4.29,0.75 8.56,1.9 12.75,3.42l-4.72 13.02c-3.35,-1.21 -6.84,-2.14 -10.42,-2.77 -3.52,-0.61 -7.12,-0.93 -10.76,-0.93 -17.15,0 -32.69,6.96 -43.93,18.2 -11.24,11.24 -18.2,26.78 -18.2,43.93 0,17.17 6.95,32.71 18.17,43.93 11.27,11.24 26.8,18.2 43.96,18.2 17.17,0 32.71,-6.95 43.93,-18.17 11.25,-11.24 18.2,-26.78 18.2,-43.96 0,-4.33 -0.44,-8.59 -1.3,-12.7 -0.87,-4.17 -2.17,-8.25 -3.87,-12.15l12.69 -5.54z"/>
   <path className="fil1" d="M1611.74 717.41c2.09,4.8 3.69,9.79 4.74,14.87 1.07,5.13 1.62,10.34 1.62,15.52 0,20.96 -8.51,39.96 -22.27,53.72 -13.79,13.78 -32.79,22.3 -53.75,22.3 -2.33,0 -4.81,-0.13 -7.39,-0.38 -2.62,-0.25 -5.08,-0.61 -7.34,-1.05l2.66 -13.62c2.09,0.41 4.1,0.72 5.98,0.89 1.84,0.18 3.88,0.27 6.09,0.27 17.17,0 32.71,-6.95 43.93,-18.17 11.25,-11.24 18.2,-26.78 18.2,-43.96 0,-4.33 -0.44,-8.59 -1.3,-12.7 -0.87,-4.17 -2.17,-8.25 -3.87,-12.15l12.69 -5.54zm-114.25 91.94c-9.69,-7.04 -17.67,-16.31 -23.15,-27.06 -5.28,-10.36 -8.27,-22.09 -8.27,-34.5 0,-20.98 8.52,-40 22.27,-53.75 13.75,-13.75 32.76,-22.27 53.75,-22.27 4.39,0 8.79,0.39 13.14,1.15 4.29,0.75 8.56,1.9 12.75,3.42l-4.72 13.02c-3.35,-1.21 -6.84,-2.14 -10.42,-2.77 -3.52,-0.61 -7.12,-0.93 -10.76,-0.93 -17.15,0 -32.69,6.96 -43.93,18.2 -11.24,11.24 -18.2,26.78 -18.2,43.93 0,10.16 2.44,19.75 6.75,28.2 4.48,8.79 11,16.37 18.92,22.12l-8.14 11.23z"/>
   <path className="fil1" d="M326.83 421.61l607.45 0c4.82,0 9.2,1.97 12.38,5.14 3.16,3.19 5.14,7.58 5.14,12.38l0 380.92c0,4.8 -1.98,9.19 -5.16,12.36 -3.16,3.19 -7.54,5.16 -12.36,5.16l-607.45 0c-4.79,0 -9.17,-1.97 -12.35,-5.14 -3.2,-3.2 -5.17,-7.59 -5.17,-12.38l0 -380.92c0,-4.79 1.97,-9.17 5.14,-12.35 3.2,-3.2 7.59,-5.17 12.38,-5.17zm607.45 13.89l-607.45 0c-1.01,0 -1.92,0.4 -2.56,1.04 -0.67,0.67 -1.07,1.58 -1.07,2.59l0 380.92c0,1.01 0.4,1.92 1.04,2.56 0.67,0.67 1.58,1.07 2.59,1.07l607.45 0c0.99,0 1.9,-0.41 2.56,-1.07 0.67,-0.64 1.07,-1.55 1.07,-2.56l0 -380.92c0,-1.01 -0.4,-1.92 -1.04,-2.56 -0.69,-0.66 -1.59,-1.07 -2.59,-1.07z"/>
   <path className="fil1" d="M358.02 452.92l548.76 0c3.59,0 6.89,1.48 9.28,3.88 2.39,2.36 3.88,5.66 3.88,9.28l0 304.46c0,3.63 -1.48,6.92 -3.86,9.3 -2.41,2.38 -5.7,3.86 -9.3,3.86l-548.76 0c-3.62,0 -6.92,-1.48 -9.3,-3.86 -2.38,-2.38 -3.86,-5.68 -3.86,-9.3l0 -304.46c0,-3.62 1.48,-6.92 3.86,-9.3 2.38,-2.38 5.68,-3.86 9.3,-3.86zm548.04 13.89l-547.31 0 0 303.01 547.31 0 0 -303.01z"/>
   <circle className="fil2" cx="481.5" cy="619.57" r="94.57"/>
   <path className="fil1" d="M604.01 532.91c-3.83,0 -6.94,-3.11 -6.94,-6.94 0,-3.83 3.11,-6.94 6.94,-6.94l150.14 0c3.83,0 6.94,3.11 6.94,6.94 0,3.83 -3.11,6.94 -6.94,6.94l-150.14 0z"/>
   <path className="fil1" d="M604.31 577.04c-3.83,0 -6.94,-3.11 -6.94,-6.94 0,-3.83 3.11,-6.94 6.94,-6.94l219.07 0c3.83,0 6.94,3.11 6.94,6.94 0,3.83 -3.11,6.94 -6.94,6.94l-219.07 0z"/>
   <path className="fil1" d="M603.91 623.25c-3.83,0 -6.94,-3.11 -6.94,-6.94 0,-3.83 3.11,-6.94 6.94,-6.94l157.69 0c3.83,0 6.94,3.11 6.94,6.94 0,3.83 -3.11,6.94 -6.94,6.94l-157.69 0z"/>
   <path className="fil1" d="M604.11 669.82c-3.83,0 -6.94,-3.11 -6.94,-6.94 0,-3.83 3.11,-6.94 6.94,-6.94l162.19 0c3.83,0 6.94,3.11 6.94,6.94 0,3.83 -3.11,6.94 -6.94,6.94l-162.19 0z"/>
   <path className="fil1" d="M604.21 714.43c-3.83,0 -6.94,-3.11 -6.94,-6.94 0,-3.83 3.11,-6.94 6.94,-6.94l83.6 0c3.83,0 6.94,3.11 6.94,6.94 0,3.83 -3.11,6.94 -6.94,6.94l-83.6 0z"/>
   <path className="fil1" d="M715.03 714.33c-3.83,0 -6.94,-3.11 -6.94,-6.94 0,-3.83 3.11,-6.94 6.94,-6.94l60.73 0c3.83,0 6.94,3.11 6.94,6.94 0,3.83 -3.11,6.94 -6.94,6.94l-60.73 0z"/>
   <path className="fil1" d="M817.91 518.17c3.83,0 6.94,3.11 6.94,6.94 0,3.83 -3.11,6.94 -6.94,6.94l-30.26 0c-3.83,0 -6.94,-3.11 -6.94,-6.94 0,-3.83 3.11,-6.94 6.94,-6.94l30.26 0z"/>
   <path className="fil1" d="M603.48 830.62l-0.03 0.23c-0.56,18.32 -1.13,36.64 -6.93,49.67 -3.14,7.07 -7.73,12.43 -13.24,16.43 -5.37,3.91 -11.5,6.46 -17.95,8.06 -6.93,1.72 -13.97,2.33 -20.13,2.85 -4.37,0.37 -8.27,0.71 -10.7,1.31 -1.61,0.41 -2.37,0.81 -2.64,1.2 -0.31,0.45 -0.5,1.58 -0.66,2.88 -0.48,3.98 -0.49,8.85 -0.49,13.72l-13.89 0c0,-5.26 0,-10.53 0.6,-15.41 0.38,-3.13 1.02,-6.14 3.1,-9.11 2.12,-3.04 5.35,-5.41 10.62,-6.73 3.63,-0.9 8.01,-1.28 12.92,-1.69 5.7,-0.48 12.22,-1.04 17.96,-2.47 4.85,-1.2 9.37,-3.04 13.11,-5.77 3.6,-2.62 6.63,-6.17 8.73,-10.91 4.67,-10.51 5.21,-27.35 5.73,-44.21l0 -0.19 5.48 0.15 8.39 0z"/>
   <path className="fil1" d="M676.77 831.02l-0.01 0.04c0.52,16.86 1.06,33.7 5.73,44.21 2.09,4.73 5.11,8.27 8.73,10.91 3.75,2.73 8.26,4.57 13.11,5.77 5.74,1.43 12.26,1.98 17.96,2.47 4.91,0.42 9.28,0.8 12.89,1.69 5.29,1.32 8.52,3.69 10.65,6.73 2.07,2.94 2.71,5.96 3.1,9.11 0.59,4.88 0.6,10.15 0.6,15.41l-13.89 0c0,-4.87 -0,-9.75 -0.49,-13.72 -0.15,-1.27 -0.34,-2.38 -0.69,-2.88 -0.26,-0.4 -1.02,-0.8 -2.61,-1.19 -2.43,-0.61 -6.33,-0.94 -10.7,-1.31 -6.16,-0.52 -13.2,-1.13 -20.13,-2.85 -6.45,-1.59 -12.59,-4.15 -17.95,-8.06 -5.49,-4 -10.07,-9.35 -13.22,-16.44 -5.8,-13.03 -6.37,-31.35 -6.94,-49.67l-0.03 -0.19 8.39 -0.04 5.48 -0.15 0.02 0.15z"/>
   <path className="fil3" d="M513.94 572.39c4.07,-4.07 10.67,-4.07 14.73,0 4.07,4.07 4.07,10.67 0,14.73l-79.36 79.37c-4.07,4.07 -10.67,4.07 -14.73,0 -4.07,-4.07 -4.07,-10.67 0,-14.73l79.36 -79.37z"/>
   <path className="fil4" d="M264.99 446.72c-3.83,0 -6.94,-3.11 -6.94,-6.94 0,-3.83 3.11,-6.94 6.94,-6.94l28.92 0c3.83,0 6.94,3.11 6.94,6.94 0,3.83 -3.11,6.94 -6.94,6.94l-28.92 0z"/>
   <path className="fil4" d="M310.95 406.37c2.71,2.71 2.71,7.11 0,9.82 -2.71,2.71 -7.11,2.71 -9.82,0l-20.44 -20.45c-2.71,-2.71 -2.71,-7.11 0,-9.82 2.71,-2.71 7.11,-2.71 9.82,0l20.44 20.45z"/>
   <path className="fil4" d="M341.49 400.87c0,3.83 -3.11,6.94 -6.94,6.94 -3.83,0 -6.94,-3.11 -6.94,-6.94l0 -28.92c0,-3.83 3.11,-6.94 6.94,-6.94 3.83,0 6.94,3.11 6.94,6.94l0 28.92z"/>
   <path className="fil1" d="M643.78 333.09c0,-9.14 -13.89,-9.14 -13.89,0l0 26.01c0,9.14 13.89,9.14 13.89,0l0 -26.01zm0 67.68c0,-9.14 -13.89,-9.14 -13.89,0l0 27.78c0,9.14 13.89,9.14 13.89,0l0 -27.78z"/>
   <path className="fil1" d="M1042.14 273.52l467.31 0c7.41,0 14.16,3.03 19.04,7.91 4.88,4.88 7.91,11.62 7.91,19.04l0 84.33c0,7.41 -3.03,14.16 -7.91,19.04 -4.91,4.87 -11.64,7.91 -19.04,7.91l-467.31 0c-7.39,0 -14.13,-3.04 -19.01,-7.91 -4.9,-4.91 -7.94,-11.64 -7.94,-19.04l0 -84.33c0,-7.39 3.04,-14.13 7.91,-19.01 4.88,-4.91 11.62,-7.94 19.04,-7.94zm467.31 13.89l-467.31 0c-3.58,0 -6.85,1.47 -9.22,3.84 -2.37,2.35 -3.84,5.63 -3.84,9.22l0 84.33c0,3.59 1.47,6.87 3.83,9.23 2.36,2.35 5.64,3.83 9.23,3.83l467.31 0c3.59,0 6.87,-1.47 9.23,-3.83 2.35,-2.38 3.83,-5.65 3.83,-9.23l0 -84.33c0,-3.58 -1.47,-6.85 -3.84,-9.22 -2.37,-2.37 -5.63,-3.84 -9.22,-3.84z"/>
   <path className="fil1" d="M1015.32 237.73c9.14,0 9.14,-13.89 0,-13.89l-6.58 0c-9.14,0 -9.14,13.89 0,13.89l6.58 0zm-48.25 0c9.14,0 9.14,-13.89 0,-13.89l-27.78 0c-9.14,0 -9.14,13.89 0,13.89l27.78 0zm-69.45 0c9.14,0 9.14,-13.89 0,-13.89l-27.78 0c-9.14,0 -9.14,13.89 0,13.89l27.78 0zm-69.45 0c9.14,0 9.14,-13.89 0,-13.89l-27.78 0c-9.14,0 -9.14,13.89 0,13.89l27.78 0zm-69.45 0c9.14,0 9.14,-13.89 0,-13.89l-27.78 0c-9.14,0 -9.14,13.89 0,13.89l27.78 0z"/>
   <rect className="fil5" transform="matrix(0.65783 -0.65783 0.65783 0.65783 584.096 252.95)" width="109.06" height="109.06" rx="10" ry="10"/>
   <path className="fil1" d="M1041.48 142.71l467.65 0c7.37,0 14.07,3.02 18.92,7.86 4.85,4.85 7.86,11.55 7.86,18.92l0 84.66c0,7.37 -3.02,14.07 -7.86,18.92 -4.85,4.85 -11.55,7.86 -18.92,7.86l-467.65 0c-7.37,0 -14.07,-3.02 -18.92,-7.86 -4.85,-4.85 -7.86,-11.55 -7.86,-18.92l0 -84.66c0,-7.37 3.02,-14.07 7.86,-18.92 4.85,-4.85 11.55,-7.86 18.92,-7.86zm467.65 13.89l-467.65 0c-3.54,0 -6.76,1.46 -9.1,3.79 -2.33,2.33 -3.79,5.56 -3.79,9.1l0 84.66c0,3.54 1.46,6.76 3.79,9.1 2.33,2.33 5.56,3.79 9.1,3.79l467.65 0c3.54,0 6.76,-1.46 9.1,-3.79 2.33,-2.33 3.79,-5.56 3.79,-9.1l0 -84.66c0,-3.54 -1.46,-6.76 -3.79,-9.1 -2.33,-2.33 -5.56,-3.79 -9.1,-3.79z"/>
   <path className="fil1" d="M1040.66 404.34l467.31 0c7.41,0 14.16,3.03 19.04,7.91 4.88,4.88 7.91,11.62 7.91,19.04l0 84.33c0,7.41 -3.03,14.16 -7.91,19.04 -4.88,4.88 -11.62,7.91 -19.04,7.91l-467.31 0c-7.41,0 -14.16,-3.03 -19.04,-7.91 -4.87,-4.91 -7.91,-11.64 -7.91,-19.04l0 -84.33c0,-7.39 3.04,-14.13 7.91,-19.01 4.88,-4.91 11.62,-7.94 19.04,-7.94zm467.31 13.89l-467.31 0c-3.58,0 -6.85,1.47 -9.22,3.84 -2.37,2.35 -3.84,5.63 -3.84,9.22l0 84.33c0,3.59 1.47,6.87 3.83,9.23 2.38,2.35 5.65,3.83 9.23,3.83l467.31 0c3.58,0 6.85,-1.47 9.22,-3.84 2.37,-2.37 3.84,-5.63 3.84,-9.22l0 -84.33c0,-3.58 -1.47,-6.85 -3.84,-9.22 -2.37,-2.37 -5.63,-3.84 -9.22,-3.84z"/>
   <rect className="fil6" x="1022.63" y="672.92" width="507.31" height="124.33" rx="20" ry="20"/>
   <path className="fil1" d="M1042.63 665.97l467.31 0c7.39,0 14.13,3.04 19.01,7.91 4.91,4.88 7.94,11.62 7.94,19.04l0 84.33c0,7.41 -3.03,14.16 -7.91,19.04 -4.88,4.88 -11.62,7.91 -19.04,7.91l-467.31 0c-7.41,0 -14.16,-3.03 -19.04,-7.91 -4.87,-4.91 -7.91,-11.64 -7.91,-19.04l0 -84.33c0,-7.39 3.04,-14.13 7.91,-19.01 4.91,-4.9 11.64,-7.94 19.04,-7.94zm467.31 13.89l-467.31 0c-3.59,0 -6.87,1.47 -9.23,3.83 -2.35,2.36 -3.83,5.64 -3.83,9.23l0 84.33c0,3.59 1.47,6.87 3.83,9.23 2.38,2.35 5.65,3.83 9.23,3.83l467.31 0c3.58,0 6.85,-1.47 9.22,-3.84 2.37,-2.37 3.84,-5.63 3.84,-9.22l0 -84.33c0,-3.58 -1.47,-6.85 -3.84,-9.22 -2.35,-2.37 -5.63,-3.84 -9.22,-3.84z"/>
   <path className="fil1" d="M1043.12 796.79l467.31 0c7.39,0 14.13,3.04 19.01,7.91 4.91,4.88 7.94,11.62 7.94,19.04l0 84.33c0,7.41 -3.03,14.16 -7.91,19.04 -4.88,4.88 -11.62,7.91 -19.04,7.91l-467.31 0c-7.41,0 -14.16,-3.03 -19.04,-7.91 -4.87,-4.91 -7.91,-11.64 -7.91,-19.04l0 -84.33c0,-7.39 3.04,-14.13 7.91,-19.01 4.91,-4.9 11.64,-7.94 19.04,-7.94zm467.31 13.89l-467.31 0c-3.59,0 -6.87,1.47 -9.23,3.83 -2.35,2.36 -3.83,5.64 -3.83,9.23l0 84.33c0,3.59 1.47,6.87 3.83,9.23 2.38,2.35 5.65,3.83 9.23,3.83l467.31 0c3.58,0 6.85,-1.47 9.22,-3.84 2.37,-2.37 3.84,-5.63 3.84,-9.22l0 -84.33c0,-3.58 -1.47,-6.85 -3.84,-9.22 -2.35,-2.37 -5.63,-3.84 -9.22,-3.84z"/>
   <path className="fil1" d="M1888.24 921.53c3.83,0 6.94,3.11 6.94,6.94 0,3.83 -3.11,6.94 -6.94,6.94l-1888.47 0c-3.83,0 -6.94,-3.11 -6.94,-6.94 0,-3.83 3.11,-6.94 6.94,-6.94l1888.47 0z"/>
   <path className="fil1" d="M1464.59 189.69c0,-3.83 3.11,-6.94 6.94,-6.94 3.83,0 6.94,3.11 6.94,6.94l0 46.37c0,3.83 -3.11,6.94 -6.94,6.94 -3.83,0 -6.94,-3.11 -6.94,-6.94l0 -46.37z"/>
   <path className="fil1" d="M1424.59 189.69c0,-3.83 3.11,-6.94 6.94,-6.94 3.83,0 6.94,3.11 6.94,6.94l0 46.37c0,3.83 -3.11,6.94 -6.94,6.94 -3.83,0 -6.94,-3.11 -6.94,-6.94l0 -46.37z"/>
   <path className="fil1" d="M1384.59 189.69c0,-3.83 3.11,-6.94 6.94,-6.94 3.83,0 6.94,3.11 6.94,6.94l0 46.37c0,3.83 -3.11,6.94 -6.94,6.94 -3.83,0 -6.94,-3.11 -6.94,-6.94l0 -46.37z"/>
   <path className="fil1" d="M1344.59 189.69c0,-3.83 3.11,-6.94 6.94,-6.94 3.83,0 6.94,3.11 6.94,6.94l0 46.37c0,3.83 -3.11,6.94 -6.94,6.94 -3.83,0 -6.94,-3.11 -6.94,-6.94l0 -46.37z"/>
   <path className="fil1" d="M1304.59 189.69c0,-3.83 3.11,-6.94 6.94,-6.94 3.83,0 6.94,3.11 6.94,6.94l0 46.37c0,3.83 -3.11,6.94 -6.94,6.94 -3.83,0 -6.94,-3.11 -6.94,-6.94l0 -46.37z"/>
   <path className="fil1" d="M1464.59 319.69c0,-3.83 3.11,-6.94 6.94,-6.94 3.83,0 6.94,3.11 6.94,6.94l0 46.37c0,3.83 -3.11,6.94 -6.94,6.94 -3.83,0 -6.94,-3.11 -6.94,-6.94l0 -46.37z"/>
   <path className="fil1" d="M1424.59 319.69c0,-3.83 3.11,-6.94 6.94,-6.94 3.83,0 6.94,3.11 6.94,6.94l0 46.37c0,3.83 -3.11,6.94 -6.94,6.94 -3.83,0 -6.94,-3.11 -6.94,-6.94l0 -46.37z"/>
   <path className="fil1" d="M1384.59 319.69c0,-3.83 3.11,-6.94 6.94,-6.94 3.83,0 6.94,3.11 6.94,6.94l0 46.37c0,3.83 -3.11,6.94 -6.94,6.94 -3.83,0 -6.94,-3.11 -6.94,-6.94l0 -46.37z"/>
   <path className="fil1" d="M1344.59 319.69c0,-3.83 3.11,-6.94 6.94,-6.94 3.83,0 6.94,3.11 6.94,6.94l0 46.37c0,3.83 -3.11,6.94 -6.94,6.94 -3.83,0 -6.94,-3.11 -6.94,-6.94l0 -46.37z"/>
   <path className="fil1" d="M1304.59 319.69c0,-3.83 3.11,-6.94 6.94,-6.94 3.83,0 6.94,3.11 6.94,6.94l0 46.37c0,3.83 -3.11,6.94 -6.94,6.94 -3.83,0 -6.94,-3.11 -6.94,-6.94l0 -46.37z"/>
   <path className="fil1" d="M1264.59 319.69c0,-3.83 3.11,-6.94 6.94,-6.94 3.83,0 6.94,3.11 6.94,6.94l0 46.37c0,3.83 -3.11,6.94 -6.94,6.94 -3.83,0 -6.94,-3.11 -6.94,-6.94l0 -46.37z"/>
   <path className="fil1" d="M1464.59 449.69c0,-3.83 3.11,-6.94 6.94,-6.94 3.83,0 6.94,3.11 6.94,6.94l0 46.37c0,3.83 -3.11,6.94 -6.94,6.94 -3.83,0 -6.94,-3.11 -6.94,-6.94l0 -46.37z"/>
   <path className="fil1" d="M1424.59 449.69c0,-3.83 3.11,-6.94 6.94,-6.94 3.83,0 6.94,3.11 6.94,6.94l0 46.37c0,3.83 -3.11,6.94 -6.94,6.94 -3.83,0 -6.94,-3.11 -6.94,-6.94l0 -46.37z"/>
   <path className="fil1" d="M1384.59 449.69c0,-3.83 3.11,-6.94 6.94,-6.94 3.83,0 6.94,3.11 6.94,6.94l0 46.37c0,3.83 -3.11,6.94 -6.94,6.94 -3.83,0 -6.94,-3.11 -6.94,-6.94l0 -46.37z"/>
   <path className="fil1" d="M1344.59 449.69c0,-3.83 3.11,-6.94 6.94,-6.94 3.83,0 6.94,3.11 6.94,6.94l0 46.37c0,3.83 -3.11,6.94 -6.94,6.94 -3.83,0 -6.94,-3.11 -6.94,-6.94l0 -46.37z"/>
   <path className="fil1" d="M1304.59 449.69c0,-3.83 3.11,-6.94 6.94,-6.94 3.83,0 6.94,3.11 6.94,6.94l0 46.37c0,3.83 -3.11,6.94 -6.94,6.94 -3.83,0 -6.94,-3.11 -6.94,-6.94l0 -46.37z"/>
   <path className="fil1" d="M1464.59 839.69c0,-3.83 3.11,-6.94 6.94,-6.94 3.83,0 6.94,3.11 6.94,6.94l0 46.37c0,3.83 -3.11,6.94 -6.94,6.94 -3.83,0 -6.94,-3.11 -6.94,-6.94l0 -46.37z"/>
   <path className="fil1" d="M1424.59 839.69c0,-3.83 3.11,-6.94 6.94,-6.94 3.83,0 6.94,3.11 6.94,6.94l0 46.37c0,3.83 -3.11,6.94 -6.94,6.94 -3.83,0 -6.94,-3.11 -6.94,-6.94l0 -46.37z"/>
   <path className="fil1" d="M1384.59 839.69c0,-3.83 3.11,-6.94 6.94,-6.94 3.83,0 6.94,3.11 6.94,6.94l0 46.37c0,3.83 -3.11,6.94 -6.94,6.94 -3.83,0 -6.94,-3.11 -6.94,-6.94l0 -46.37z"/>
   <path className="fil1" d="M1344.59 839.69c0,-3.83 3.11,-6.94 6.94,-6.94 3.83,0 6.94,3.11 6.94,6.94l0 46.37c0,3.83 -3.11,6.94 -6.94,6.94 -3.83,0 -6.94,-3.11 -6.94,-6.94l0 -46.37z"/>
   <path className="fil1" d="M1304.59 839.69c0,-3.83 3.11,-6.94 6.94,-6.94 3.83,0 6.94,3.11 6.94,6.94l0 46.37c0,3.83 -3.11,6.94 -6.94,6.94 -3.83,0 -6.94,-3.11 -6.94,-6.94l0 -46.37z"/>
   <path className="fil1" d="M1264.59 839.69c0,-3.83 3.11,-6.94 6.94,-6.94 3.83,0 6.94,3.11 6.94,6.94l0 46.37c0,3.83 -3.11,6.94 -6.94,6.94 -3.83,0 -6.94,-3.11 -6.94,-6.94l0 -46.37z"/>
   <path className="fil1" d="M1464.59 709.69c0,-3.83 3.11,-6.94 6.94,-6.94 3.83,0 6.94,3.11 6.94,6.94l0 46.37c0,3.83 -3.11,6.94 -6.94,6.94 -3.83,0 -6.94,-3.11 -6.94,-6.94l0 -46.37z"/>
   <path className="fil1" d="M1424.59 709.69c0,-3.83 3.11,-6.94 6.94,-6.94 3.83,0 6.94,3.11 6.94,6.94l0 46.37c0,3.83 -3.11,6.94 -6.94,6.94 -3.83,0 -6.94,-3.11 -6.94,-6.94l0 -46.37z"/>
   <path className="fil1" d="M1384.59 709.69c0,-3.83 3.11,-6.94 6.94,-6.94 3.83,0 6.94,3.11 6.94,6.94l0 46.37c0,3.83 -3.11,6.94 -6.94,6.94 -3.83,0 -6.94,-3.11 -6.94,-6.94l0 -46.37z"/>
   <path className="fil1" d="M1344.59 709.69c0,-3.83 3.11,-6.94 6.94,-6.94 3.83,0 6.94,3.11 6.94,6.94l0 46.37c0,3.83 -3.11,6.94 -6.94,6.94 -3.83,0 -6.94,-3.11 -6.94,-6.94l0 -46.37z"/>
   <path className="fil1" d="M1304.59 709.69c0,-3.83 3.11,-6.94 6.94,-6.94 3.83,0 6.94,3.11 6.94,6.94l0 46.37c0,3.83 -3.11,6.94 -6.94,6.94 -3.83,0 -6.94,-3.11 -6.94,-6.94l0 -46.37z"/>
   <circle className="fil7" cx="1091.03" cy="213.62" r="15.57"/>
   <path className="fil8" d="M1091.04 191.11c6.21,0 11.84,2.52 15.92,6.6 4.07,4.07 6.59,9.7 6.59,15.92 0,6.19 -2.53,11.81 -6.59,15.89 -4.1,4.09 -9.72,6.62 -15.92,6.62 -6.21,0 -11.85,-2.53 -15.92,-6.59 -4.07,-4.07 -6.6,-9.7 -6.6,-15.92 0,-6.21 2.52,-11.85 6.6,-15.92 4.07,-4.07 9.7,-6.59 15.92,-6.59zm6.1 16.42c-1.56,-1.56 -3.72,-2.53 -6.1,-2.53 -2.38,0 -4.54,0.97 -6.1,2.52 -1.56,1.56 -2.53,3.72 -2.53,6.1 0,2.38 0.97,4.54 2.53,6.1 1.56,1.56 3.72,2.52 6.1,2.52 2.39,0 4.56,-0.96 6.11,-2.51 1.54,-1.55 2.51,-3.72 2.51,-6.11 0,-2.38 -0.97,-4.54 -2.52,-6.1z"/>
   <circle className="fil7" cx="1091.03" cy="343.62" r="15.57"/>
   <path className="fil8" d="M1091.04 321.11c6.21,0 11.84,2.52 15.92,6.6 4.07,4.07 6.59,9.7 6.59,15.92 0,6.19 -2.53,11.81 -6.59,15.89 -4.1,4.09 -9.72,6.62 -15.92,6.62 -6.21,0 -11.85,-2.53 -15.92,-6.59 -4.07,-4.07 -6.6,-9.7 -6.6,-15.92 0,-6.21 2.52,-11.85 6.6,-15.92 4.07,-4.07 9.7,-6.59 15.92,-6.59zm6.1 16.42c-1.56,-1.56 -3.72,-2.53 -6.1,-2.53 -2.38,0 -4.54,0.97 -6.1,2.52 -1.56,1.56 -2.53,3.72 -2.53,6.1 0,2.38 0.97,4.54 2.53,6.1 1.56,1.56 3.72,2.52 6.1,2.52 2.39,0 4.56,-0.96 6.11,-2.51 1.54,-1.55 2.51,-3.72 2.51,-6.11 0,-2.38 -0.97,-4.54 -2.52,-6.1z"/>
   <circle className="fil7" cx="1091.03" cy="473.62" r="15.57"/>
   <path className="fil8" d="M1091.04 451.11c6.21,0 11.84,2.52 15.92,6.6 4.07,4.07 6.59,9.7 6.59,15.92 0,6.19 -2.53,11.81 -6.59,15.89 -4.1,4.09 -9.72,6.62 -15.92,6.62 -6.21,0 -11.85,-2.53 -15.92,-6.59 -4.07,-4.07 -6.6,-9.7 -6.6,-15.92 0,-6.21 2.52,-11.85 6.6,-15.92 4.07,-4.07 9.7,-6.59 15.92,-6.59zm6.1 16.42c-1.56,-1.56 -3.72,-2.53 -6.1,-2.53 -2.38,0 -4.54,0.97 -6.1,2.52 -1.56,1.56 -2.53,3.72 -2.53,6.1 0,2.38 0.97,4.54 2.53,6.1 1.56,1.56 3.72,2.52 6.1,2.52 2.39,0 4.56,-0.96 6.11,-2.51 1.55,-1.56 2.51,-3.72 2.51,-6.11 0,-2.38 -0.97,-4.54 -2.52,-6.1z"/>
   <circle className="fil5" cx="1091.03" cy="733.62" r="15.57"/>
   <path className="fil4" d="M1091.04 711.11c6.21,0 11.84,2.52 15.92,6.6 4.07,4.07 6.59,9.7 6.59,15.92 0,6.19 -2.53,11.81 -6.59,15.89 -4.1,4.09 -9.72,6.62 -15.92,6.62 -6.21,0 -11.85,-2.53 -15.92,-6.59 -4.07,-4.07 -6.6,-9.7 -6.6,-15.92 0,-6.18 2.52,-11.81 6.6,-15.89 4.11,-4.1 9.74,-6.63 15.92,-6.63zm6.1 16.42c-1.56,-1.56 -3.72,-2.53 -6.1,-2.53 -2.4,0 -4.56,0.96 -6.1,2.5 -1.57,1.57 -2.53,3.73 -2.53,6.13 0,2.38 0.97,4.54 2.53,6.1 1.56,1.56 3.72,2.52 6.1,2.52 2.39,0 4.56,-0.96 6.11,-2.51 1.55,-1.56 2.51,-3.72 2.51,-6.11 0,-2.38 -0.97,-4.54 -2.52,-6.1z"/>
   <circle className="fil5" cx="1181.03" cy="733.62" r="15.57"/>
   <path className="fil4" d="M1181.04 711.11c6.21,0 11.84,2.52 15.92,6.6 4.07,4.07 6.59,9.7 6.59,15.92 0,6.19 -2.53,11.81 -6.59,15.89 -4.1,4.09 -9.72,6.62 -15.92,6.62 -6.21,0 -11.85,-2.53 -15.92,-6.59 -4.07,-4.07 -6.6,-9.7 -6.6,-15.92 0,-6.18 2.52,-11.81 6.6,-15.89 4.11,-4.1 9.74,-6.63 15.92,-6.63zm6.1 16.42c-1.56,-1.56 -3.72,-2.53 -6.1,-2.53 -2.4,0 -4.56,0.96 -6.1,2.5 -1.57,1.57 -2.53,3.73 -2.53,6.13 0,2.38 0.97,4.54 2.53,6.1 1.56,1.56 3.72,2.52 6.1,2.52 2.39,0 4.56,-0.96 6.11,-2.51 1.55,-1.56 2.51,-3.72 2.51,-6.11 0,-2.38 -0.97,-4.54 -2.52,-6.1z"/>
   <circle className="fil7" cx="1091.03" cy="863.62" r="15.57"/>
   <path className="fil8" d="M1091.04 841.11c6.21,0 11.84,2.52 15.92,6.6 4.07,4.07 6.59,9.7 6.59,15.92 0,6.19 -2.53,11.81 -6.59,15.89 -4.1,4.09 -9.72,6.62 -15.92,6.62 -6.21,0 -11.85,-2.53 -15.92,-6.59 -4.07,-4.07 -6.6,-9.7 -6.6,-15.92 0,-6.18 2.52,-11.81 6.6,-15.89 4.11,-4.1 9.74,-6.63 15.92,-6.63zm6.1 16.42c-1.56,-1.56 -3.72,-2.53 -6.1,-2.53 -2.4,0 -4.56,0.96 -6.1,2.5 -1.57,1.57 -2.53,3.73 -2.53,6.13 0,2.38 0.97,4.54 2.53,6.1 1.56,1.56 3.72,2.52 6.1,2.52 2.39,0 4.56,-0.96 6.11,-2.51 1.55,-1.56 2.51,-3.72 2.51,-6.11 0,-2.38 -0.97,-4.54 -2.52,-6.1z"/>
   <path className="fil1" d="M1523.92 513.45c4.3,-2.81 9.89,-5.22 15.74,-6.9 5.86,-1.68 11.97,-2.68 17.3,-2.68 15.49,0 29.52,6.59 39.65,17.26 10.05,10.57 16.27,25.13 16.27,41.19 0,16.06 -6.22,30.62 -16.27,41.19 -10.13,10.66 -24.16,17.25 -39.65,17.25 -5.34,0 -10.53,-0.8 -15.45,-2.27 -5.09,-1.53 -9.89,-3.79 -14.24,-6.64l7.6 -11.61c3.28,2.15 6.85,3.84 10.6,4.96 3.63,1.09 7.48,1.67 11.49,1.67 11.55,0 22.03,-4.94 29.61,-12.91 7.67,-8.07 12.42,-19.26 12.42,-31.64 0,-12.39 -4.75,-23.57 -12.42,-31.64 -7.59,-7.98 -18.06,-12.92 -29.61,-12.92 -4.17,0 -8.93,0.77 -13.45,2.07 -4.5,1.31 -8.78,3.13 -11.98,5.23l-7.6 -11.61z"/>
   <path className="fil3" d="M645.57 214.06c0,-5.75 4.67,-10.42 10.42,-10.42 5.75,0 10.42,4.67 10.42,10.42l0 44c0,5.75 -4.67,10.42 -10.42,10.42 -5.75,0 -10.42,-4.67 -10.42,-10.42l0 -44z"/>
   <circle className="fil9" cx="656.55" cy="288.14" r="8.01"/>
   <path className="fil3" d="M656.55 276.66c3.17,0 6.05,1.29 8.12,3.36 2.07,2.07 3.36,4.95 3.36,8.12 0,3.17 -1.29,6.05 -3.36,8.12 -2.07,2.07 -4.95,3.36 -8.12,3.36 -3.17,0 -6.05,-1.29 -8.12,-3.36 -2.07,-2.07 -3.36,-4.95 -3.36,-8.12 0,-3.17 1.29,-6.05 3.36,-8.12 2.07,-2.07 4.95,-3.36 8.12,-3.36zm3.21 8.28c-0.82,-0.82 -1.96,-1.33 -3.21,-1.33 -1.25,0 -2.39,0.51 -3.21,1.33 -0.82,0.82 -1.33,1.96 -1.33,3.21 0,1.25 0.51,2.39 1.33,3.21 0.82,0.82 1.96,1.33 3.21,1.33 1.25,0 2.39,-0.51 3.21,-1.33 0.82,-0.82 1.33,-1.96 1.33,-3.21 0,-1.25 -0.51,-2.39 -1.33,-3.21z"/>
   <path className="fil1" d="M1613.97 341.69c2.09,4.8 3.69,9.79 4.74,14.87 1.07,5.13 1.62,10.34 1.62,15.52 0,20.98 -8.52,40 -22.27,53.75 -13.78,13.75 -32.78,22.27 -53.75,22.27 -3.02,0 -6.06,-0.19 -9.07,-0.54 -2.94,-0.35 -5.92,-0.89 -8.9,-1.62l3.25 -13.46c2.29,0.56 4.72,0.99 7.28,1.3 2.39,0.28 4.89,0.43 7.44,0.43 17.17,0 32.71,-6.95 43.93,-18.17 11.24,-11.27 18.2,-26.8 18.2,-43.96 0,-4.33 -0.44,-8.59 -1.3,-12.7 -0.87,-4.17 -2.17,-8.25 -3.87,-12.15l12.69 -5.54zm-132.22 73.53c-0.82,-1.19 -1.59,-2.37 -2.3,-3.54l-2.07 -3.6 12.2 -6.57 1.7 2.96 1.87 2.88 -11.39 7.87zm46.24 -117.39c2.57,-0.56 5.28,-1 8.11,-1.31 2.8,-0.3 5.55,-0.46 8.22,-0.46 4.39,0 8.79,0.39 13.14,1.15 4.29,0.75 8.56,1.9 12.75,3.42l-4.72 13.02c-3.35,-1.21 -6.84,-2.14 -10.42,-2.77 -3.52,-0.61 -7.12,-0.93 -10.76,-0.93 -2.38,0 -4.64,0.12 -6.76,0.35 -2.17,0.23 -4.4,0.61 -6.65,1.09l-2.93 -13.57z"/>
   <rect className="fil6" x="1021.15" y="542.1" width="507.31" height="124.33" rx="20" ry="20"/>
   <path className="fil1" d="M1041.15 535.16l467.31 0c7.39,0 14.13,3.04 19.01,7.91 4.91,4.88 7.94,11.62 7.94,19.04l0 84.33c0,7.41 -3.03,14.16 -7.91,19.04 -4.88,4.88 -11.62,7.91 -19.04,7.91l-467.31 0c-7.41,0 -14.16,-3.03 -19.04,-7.91 -4.87,-4.91 -7.91,-11.64 -7.91,-19.04l0 -84.33c0,-7.39 3.04,-14.13 7.91,-19.01 4.91,-4.9 11.64,-7.94 19.04,-7.94zm467.31 13.89l-467.31 0c-3.59,0 -6.87,1.47 -9.23,3.83 -2.35,2.36 -3.83,5.64 -3.83,9.23l0 84.33c0,3.59 1.47,6.87 3.83,9.23 2.38,2.35 5.65,3.83 9.23,3.83l467.31 0c3.58,0 6.85,-1.47 9.22,-3.84 2.37,-2.37 3.84,-5.63 3.84,-9.22l0 -84.33c0,-3.58 -1.47,-6.85 -3.84,-9.22 -2.35,-2.37 -5.63,-3.84 -9.22,-3.84z"/>
   <path className="fil1" d="M1464.59 579.69c0,-3.83 3.11,-6.94 6.94,-6.94 3.83,0 6.94,3.11 6.94,6.94l0 46.37c0,3.83 -3.11,6.94 -6.94,6.94 -3.83,0 -6.94,-3.11 -6.94,-6.94l0 -46.37z"/>
   <path className="fil1" d="M1424.59 579.69c0,-3.83 3.11,-6.94 6.94,-6.94 3.83,0 6.94,3.11 6.94,6.94l0 46.37c0,3.83 -3.11,6.94 -6.94,6.94 -3.83,0 -6.94,-3.11 -6.94,-6.94l0 -46.37z"/>
   <path className="fil1" d="M1384.59 579.69c0,-3.83 3.11,-6.94 6.94,-6.94 3.83,0 6.94,3.11 6.94,6.94l0 46.37c0,3.83 -3.11,6.94 -6.94,6.94 -3.83,0 -6.94,-3.11 -6.94,-6.94l0 -46.37z"/>
   <path className="fil1" d="M1344.59 579.69c0,-3.83 3.11,-6.94 6.94,-6.94 3.83,0 6.94,3.11 6.94,6.94l0 46.37c0,3.83 -3.11,6.94 -6.94,6.94 -3.83,0 -6.94,-3.11 -6.94,-6.94l0 -46.37z"/>
   <path className="fil1" d="M1304.59 579.69c0,-3.83 3.11,-6.94 6.94,-6.94 3.83,0 6.94,3.11 6.94,6.94l0 46.37c0,3.83 -3.11,6.94 -6.94,6.94 -3.83,0 -6.94,-3.11 -6.94,-6.94l0 -46.37z"/>
   <path className="fil1" d="M1264.59 579.69c0,-3.83 3.11,-6.94 6.94,-6.94 3.83,0 6.94,3.11 6.94,6.94l0 46.37c0,3.83 -3.11,6.94 -6.94,6.94 -3.83,0 -6.94,-3.11 -6.94,-6.94l0 -46.37z"/>
   <circle className="fil7" cx="1091.03" cy="603.62" r="15.57"/>
   <path className="fil8" d="M1091.04 581.11c6.21,0 11.84,2.52 15.92,6.6 4.07,4.07 6.59,9.7 6.59,15.92 0,6.19 -2.53,11.81 -6.59,15.89 -4.1,4.09 -9.72,6.62 -15.92,6.62 -6.21,0 -11.85,-2.53 -15.92,-6.59 -4.07,-4.07 -6.6,-9.7 -6.6,-15.92 0,-6.18 2.52,-11.81 6.6,-15.89 4.11,-4.1 9.74,-6.63 15.92,-6.63zm6.1 16.42c-1.56,-1.56 -3.72,-2.53 -6.1,-2.53 -2.4,0 -4.56,0.96 -6.1,2.5 -1.57,1.57 -2.53,3.73 -2.53,6.13 0,2.38 0.97,4.54 2.53,6.1 1.56,1.56 3.72,2.52 6.1,2.52 2.39,0 4.56,-0.96 6.11,-2.51 1.55,-1.56 2.51,-3.72 2.51,-6.11 0,-2.38 -0.97,-4.54 -2.52,-6.1z"/>
   <path className="fil1" d="M1526.04 234.39c4.3,-2.81 9.89,-5.22 15.74,-6.9 5.86,-1.68 11.97,-2.68 17.3,-2.68 15.49,0 29.52,6.59 39.65,17.26 10.05,10.57 16.27,25.13 16.27,41.19 0,16.06 -6.22,30.62 -16.27,41.19 -10.13,10.66 -24.16,17.25 -39.65,17.25 -5.34,0 -10.53,-0.8 -15.45,-2.27 -5.09,-1.53 -9.89,-3.79 -14.24,-6.64l7.6 -11.61c3.28,2.15 6.85,3.84 10.6,4.96 3.63,1.09 7.48,1.67 11.49,1.67 11.55,0 22.03,-4.94 29.61,-12.91 7.67,-8.07 12.42,-19.26 12.42,-31.64 0,-12.39 -4.75,-23.57 -12.42,-31.64 -7.59,-7.98 -18.06,-12.92 -29.61,-12.92 -4.17,0 -8.93,0.77 -13.45,2.07 -4.5,1.31 -8.78,3.13 -11.98,5.23l-7.6 -11.61z"/>
   <path className="fil3" d="M434.58 587.13c-4.07,-4.07 -4.07,-10.67 0,-14.73 4.07,-4.07 10.67,-4.07 14.73,0l79.37 79.36c4.07,4.07 4.07,10.67 0,14.73 -4.07,4.07 -10.67,4.07 -14.73,0l-79.37 -79.36z"/>
   <path className="fil1" d="M1144.51 248.76l0 -64.82 24.47 0c4.3,0 7.59,0.21 9.87,0.62 3.19,0.53 5.85,1.54 8.01,3.02 2.16,1.49 3.89,3.57 5.2,6.24 1.31,2.67 1.96,5.61 1.96,8.83 0,5.49 -1.75,10.16 -5.26,13.96 -3.5,3.82 -9.85,5.72 -19.03,5.72l-16.63 0 0 26.43 -8.6 0zm8.6 -34.04l16.75 0c5.55,0 9.48,-1.02 11.81,-3.09 2.32,-2.07 3.48,-4.96 3.48,-8.72 0,-2.7 -0.68,-5.03 -2.05,-6.96 -1.37,-1.93 -3.19,-3.21 -5.42,-3.83 -1.45,-0.37 -4.12,-0.57 -8,-0.57l-16.58 0 0 23.17zm-15.7 162.25l24.86 -64.82 9.43 0 26.39 64.82 -9.76 0 -7.5 -19.65 -27.3 0 -7.03 19.65 -9.09 0zm18.65 -26.61l22.09 0 -6.76 -17.97c-2.04,-5.46 -3.57,-9.97 -4.65,-13.53 -0.89,4.22 -2.08,8.37 -3.58,12.48l-7.11 19.03zm-11.36 154.82l0 -64.82 28.72 0c5.78,0 10.17,0.59 13.17,1.75 3,1.16 5.4,3.21 7.2,6.15 1.8,2.94 2.69,6.2 2.69,9.76 0,4.6 -1.49,8.48 -4.46,11.63 -2.97,3.15 -7.56,5.15 -13.78,6 2.28,1.09 4,2.17 5.17,3.23 2.5,2.3 4.87,5.18 7.09,8.63l11.21 17.65 -10.71 0 -8.57 -13.49c-2.49,-3.91 -4.56,-6.88 -6.17,-8.95 -1.63,-2.07 -3.08,-3.5 -4.36,-4.33 -1.27,-0.81 -2.58,-1.39 -3.91,-1.72 -0.97,-0.2 -2.55,-0.3 -4.77,-0.3l-9.93 0 0 28.79 -8.6 0zm8.6 -36.21l18.41 0c3.93,0 6.97,-0.41 9.17,-1.22 2.2,-0.8 3.88,-2.1 5.01,-3.89 1.15,-1.78 1.72,-3.71 1.72,-5.81 0,-3.06 -1.1,-5.6 -3.32,-7.57 -2.22,-1.98 -5.72,-2.96 -10.5,-2.96l-20.49 0 0 21.45zm-11.59 143.6l8.06 -0.72c0.38,3.26 1.27,5.93 2.67,8.03 1.4,2.08 3.57,3.77 6.52,5.07 2.94,1.28 6.26,1.93 9.94,1.93 3.27,0 6.15,-0.48 8.66,-1.46 2.51,-0.98 4.36,-2.32 5.58,-4.03 1.22,-1.7 1.84,-3.56 1.84,-5.55 0,-2.02 -0.59,-3.79 -1.77,-5.31 -1.17,-1.51 -3.12,-2.78 -5.84,-3.81 -1.73,-0.67 -5.58,-1.72 -11.54,-3.15 -5.96,-1.43 -10.13,-2.78 -12.51,-4.04 -3.09,-1.63 -5.39,-3.65 -6.9,-6.05 -1.52,-2.4 -2.28,-5.1 -2.28,-8.07 0,-3.29 0.93,-6.35 2.79,-9.19 1.85,-2.85 4.56,-5.01 8.13,-6.49 3.56,-1.48 7.53,-2.22 11.89,-2.22 4.8,0 9.04,0.77 12.7,2.33 3.67,1.54 6.49,3.81 8.46,6.83 1.98,3 3.03,6.41 3.18,10.21l-8.24 0.63c-0.44,-4.09 -1.93,-7.18 -4.48,-9.26 -2.55,-2.1 -6.32,-3.14 -11.3,-3.14 -5.19,0 -8.98,0.95 -11.35,2.85 -2.37,1.9 -3.56,4.2 -3.56,6.88 0,2.32 0.85,4.24 2.52,5.75 1.66,1.49 5.96,3.05 12.93,4.62 6.97,1.58 11.76,2.96 14.35,4.13 3.76,1.73 6.55,3.92 8.34,6.59 1.8,2.66 2.69,5.72 2.69,9.19 0,3.46 -0.98,6.69 -2.96,9.73 -1.98,3.05 -4.8,5.42 -8.49,7.11 -3.7,1.69 -7.85,2.54 -12.48,2.54 -5.85,0 -10.76,-0.86 -14.71,-2.57 -3.97,-1.7 -7.06,-4.27 -9.31,-7.71 -2.26,-3.43 -3.44,-7.3 -3.56,-11.63z"/>
  </g>
 </g>
</svg>
