<svg xmlns="http://www.w3.org/2000/svg" xmlns:xlink="http://www.w3.org/1999/xlink" width="109" height="114" viewBox="0 0 109 114">
  <defs>
    <clipPath id="clip-path">
      <rect width="109" height="114" fill="none"/>
    </clipPath>
  </defs>
  <g id="dots" clip-path="url(#clip-path)">
    <g transform="translate(-1649 -2607)">
      <circle id="Ellipse_267" data-name="Ellipse 267" cx="4.5" cy="4.5" r="4.5" transform="translate(1649 2607)" fill="#e8e8e8"/>
      <circle id="Ellipse_268" data-name="Ellipse 268" cx="4.5" cy="4.5" r="4.5" transform="translate(1665 2607)" fill="#e8e8e8"/>
      <circle id="Ellipse_269" data-name="Ellipse 269" cx="4.5" cy="4.5" r="4.5" transform="translate(1681 2607)" fill="#e8e8e8"/>
      <circle id="Ellipse_270" data-name="Ellipse 270" cx="4.5" cy="4.5" r="4.5" transform="translate(1697 2607)" fill="#e8e8e8"/>
      <circle id="Ellipse_271" data-name="Ellipse 271" cx="4.5" cy="4.5" r="4.5" transform="translate(1713 2607)" fill="#e8e8e8"/>
      <circle id="Ellipse_272" data-name="Ellipse 272" cx="4.5" cy="4.5" r="4.5" transform="translate(1729 2607)" fill="#e8e8e8"/>
      <circle id="Ellipse_273" data-name="Ellipse 273" cx="4.5" cy="4.5" r="4.5" transform="translate(1745 2607)" fill="#e8e8e8"/>
      <circle id="Ellipse_274" data-name="Ellipse 274" cx="4.5" cy="4.5" r="4.5" transform="translate(1761 2607)" fill="#e8e8e8"/>
    </g>
    <g transform="translate(-1649 -2590)">
      <circle id="Ellipse_267-2" data-name="Ellipse 267" cx="4.5" cy="4.5" r="4.5" transform="translate(1649 2607)" fill="#e8e8e8"/>
      <circle id="Ellipse_268-2" data-name="Ellipse 268" cx="4.5" cy="4.5" r="4.5" transform="translate(1665 2607)" fill="#e8e8e8"/>
      <circle id="Ellipse_269-2" data-name="Ellipse 269" cx="4.5" cy="4.5" r="4.5" transform="translate(1681 2607)" fill="#e8e8e8"/>
      <circle id="Ellipse_270-2" data-name="Ellipse 270" cx="4.5" cy="4.5" r="4.5" transform="translate(1697 2607)" fill="#e8e8e8"/>
      <circle id="Ellipse_271-2" data-name="Ellipse 271" cx="4.5" cy="4.5" r="4.5" transform="translate(1713 2607)" fill="#e8e8e8"/>
      <circle id="Ellipse_272-2" data-name="Ellipse 272" cx="4.5" cy="4.5" r="4.5" transform="translate(1729 2607)" fill="#e8e8e8"/>
      <circle id="Ellipse_273-2" data-name="Ellipse 273" cx="4.5" cy="4.5" r="4.5" transform="translate(1745 2607)" fill="#e8e8e8"/>
      <circle id="Ellipse_274-2" data-name="Ellipse 274" cx="4.5" cy="4.5" r="4.5" transform="translate(1761 2607)" fill="#e8e8e8"/>
    </g>
    <g transform="translate(-1649 -2573)">
      <circle id="Ellipse_267-3" data-name="Ellipse 267" cx="4.5" cy="4.5" r="4.5" transform="translate(1649 2607)" fill="#e8e8e8"/>
      <circle id="Ellipse_268-3" data-name="Ellipse 268" cx="4.5" cy="4.5" r="4.5" transform="translate(1665 2607)" fill="#e8e8e8"/>
      <circle id="Ellipse_269-3" data-name="Ellipse 269" cx="4.5" cy="4.5" r="4.5" transform="translate(1681 2607)" fill="#e8e8e8"/>
      <circle id="Ellipse_270-3" data-name="Ellipse 270" cx="4.5" cy="4.5" r="4.5" transform="translate(1697 2607)" fill="#e8e8e8"/>
      <circle id="Ellipse_271-3" data-name="Ellipse 271" cx="4.5" cy="4.5" r="4.5" transform="translate(1713 2607)" fill="#e8e8e8"/>
      <circle id="Ellipse_272-3" data-name="Ellipse 272" cx="4.5" cy="4.5" r="4.5" transform="translate(1729 2607)" fill="#e8e8e8"/>
      <circle id="Ellipse_273-3" data-name="Ellipse 273" cx="4.5" cy="4.5" r="4.5" transform="translate(1745 2607)" fill="#e8e8e8"/>
      <circle id="Ellipse_274-3" data-name="Ellipse 274" cx="4.5" cy="4.5" r="4.5" transform="translate(1761 2607)" fill="#e8e8e8"/>
    </g>
    <g transform="translate(-1649 -2556)">
      <circle id="Ellipse_267-4" data-name="Ellipse 267" cx="4.5" cy="4.5" r="4.5" transform="translate(1649 2607)" fill="#e8e8e8"/>
      <circle id="Ellipse_268-4" data-name="Ellipse 268" cx="4.5" cy="4.5" r="4.5" transform="translate(1665 2607)" fill="#e8e8e8"/>
      <circle id="Ellipse_269-4" data-name="Ellipse 269" cx="4.5" cy="4.5" r="4.5" transform="translate(1681 2607)" fill="#e8e8e8"/>
      <circle id="Ellipse_270-4" data-name="Ellipse 270" cx="4.5" cy="4.5" r="4.5" transform="translate(1697 2607)" fill="#e8e8e8"/>
      <circle id="Ellipse_271-4" data-name="Ellipse 271" cx="4.5" cy="4.5" r="4.5" transform="translate(1713 2607)" fill="#e8e8e8"/>
      <circle id="Ellipse_272-4" data-name="Ellipse 272" cx="4.5" cy="4.5" r="4.5" transform="translate(1729 2607)" fill="#e8e8e8"/>
      <circle id="Ellipse_273-4" data-name="Ellipse 273" cx="4.5" cy="4.5" r="4.5" transform="translate(1745 2607)" fill="#e8e8e8"/>
      <circle id="Ellipse_274-4" data-name="Ellipse 274" cx="4.5" cy="4.5" r="4.5" transform="translate(1761 2607)" fill="#e8e8e8"/>
    </g>
    <g transform="translate(-1649 -2539)">
      <circle id="Ellipse_267-5" data-name="Ellipse 267" cx="4.5" cy="4.5" r="4.5" transform="translate(1649 2607)" fill="#e8e8e8"/>
      <circle id="Ellipse_268-5" data-name="Ellipse 268" cx="4.5" cy="4.5" r="4.5" transform="translate(1665 2607)" fill="#e8e8e8"/>
      <circle id="Ellipse_269-5" data-name="Ellipse 269" cx="4.5" cy="4.5" r="4.5" transform="translate(1681 2607)" fill="#e8e8e8"/>
      <circle id="Ellipse_270-5" data-name="Ellipse 270" cx="4.5" cy="4.5" r="4.5" transform="translate(1697 2607)" fill="#e8e8e8"/>
      <circle id="Ellipse_271-5" data-name="Ellipse 271" cx="4.5" cy="4.5" r="4.5" transform="translate(1713 2607)" fill="#e8e8e8"/>
      <circle id="Ellipse_272-5" data-name="Ellipse 272" cx="4.5" cy="4.5" r="4.5" transform="translate(1729 2607)" fill="#e8e8e8"/>
      <circle id="Ellipse_273-5" data-name="Ellipse 273" cx="4.5" cy="4.5" r="4.5" transform="translate(1745 2607)" fill="#e8e8e8"/>
      <circle id="Ellipse_274-5" data-name="Ellipse 274" cx="4.5" cy="4.5" r="4.5" transform="translate(1761 2607)" fill="#e8e8e8"/>
    </g>
    <g transform="translate(-1649 -2522)">
      <circle id="Ellipse_267-6" data-name="Ellipse 267" cx="4.5" cy="4.5" r="4.5" transform="translate(1649 2607)" fill="#e8e8e8"/>
      <circle id="Ellipse_268-6" data-name="Ellipse 268" cx="4.5" cy="4.5" r="4.5" transform="translate(1665 2607)" fill="#e8e8e8"/>
      <circle id="Ellipse_269-6" data-name="Ellipse 269" cx="4.5" cy="4.5" r="4.5" transform="translate(1681 2607)" fill="#e8e8e8"/>
      <circle id="Ellipse_270-6" data-name="Ellipse 270" cx="4.5" cy="4.5" r="4.5" transform="translate(1697 2607)" fill="#e8e8e8"/>
      <circle id="Ellipse_271-6" data-name="Ellipse 271" cx="4.5" cy="4.5" r="4.5" transform="translate(1713 2607)" fill="#e8e8e8"/>
      <circle id="Ellipse_272-6" data-name="Ellipse 272" cx="4.5" cy="4.5" r="4.5" transform="translate(1729 2607)" fill="#e8e8e8"/>
      <circle id="Ellipse_273-6" data-name="Ellipse 273" cx="4.5" cy="4.5" r="4.5" transform="translate(1745 2607)" fill="#e8e8e8"/>
      <circle id="Ellipse_274-6" data-name="Ellipse 274" cx="4.5" cy="4.5" r="4.5" transform="translate(1761 2607)" fill="#e8e8e8"/>
    </g>
    <g transform="translate(-1649 -2505)">
      <circle id="Ellipse_267-7" data-name="Ellipse 267" cx="4.5" cy="4.5" r="4.5" transform="translate(1649 2607)" fill="#e8e8e8"/>
      <circle id="Ellipse_268-7" data-name="Ellipse 268" cx="4.5" cy="4.5" r="4.5" transform="translate(1665 2607)" fill="#e8e8e8"/>
      <circle id="Ellipse_269-7" data-name="Ellipse 269" cx="4.5" cy="4.5" r="4.5" transform="translate(1681 2607)" fill="#e8e8e8"/>
      <circle id="Ellipse_270-7" data-name="Ellipse 270" cx="4.5" cy="4.5" r="4.5" transform="translate(1697 2607)" fill="#e8e8e8"/>
      <circle id="Ellipse_271-7" data-name="Ellipse 271" cx="4.5" cy="4.5" r="4.5" transform="translate(1713 2607)" fill="#e8e8e8"/>
      <circle id="Ellipse_272-7" data-name="Ellipse 272" cx="4.5" cy="4.5" r="4.5" transform="translate(1729 2607)" fill="#e8e8e8"/>
      <circle id="Ellipse_273-7" data-name="Ellipse 273" cx="4.5" cy="4.5" r="4.5" transform="translate(1745 2607)" fill="#e8e8e8"/>
      <circle id="Ellipse_274-7" data-name="Ellipse 274" cx="4.5" cy="4.5" r="4.5" transform="translate(1761 2607)" fill="#e8e8e8"/>
    </g>
  </g>
</svg>
